<svg xmlns="http://www.w3.org/2000/svg" viewBox="0 0 24 24" width="24" height="24">
  <path d="M12 2C6.48 2 2 6.48 2 12s4.48 10 10 10 10-4.48 10-10S17.52 2 12 2zm0 18c-4.41 0-8-3.59-8-8s3.59-8 8-8 8 3.59 8 8-3.59 8-8 8zm3-14.81c.39-.47.37-1.16-.06-1.56-.47-.39-1.16-.37-1.56.06C11.54 5.71 11 8.36 11 10v1.17c0 .52.22 1.02.61 1.38.39.36.91.55 1.43.5.7-.07 1.3-.47 1.6-1 .31-.53.2-1.2-.25-1.62zM18 10c0-2.21-2.07-5-6-5-1.95 0-3.5 1.18-4.38 2.86a1.5 1.5 0 0 0 2.76 1.1c.45-.91 1.36-1.49 2.39-1.49 1.61 0 2.82 1.36 3 2.99.01.06.01.13.01.15V10h-.01z"/>
</svg>