<svg xmlns="http://www.w3.org/2000/svg" viewBox="0 0 24 24" width="24" height="24">
  <path d="M12 2C6.48 2 2 6.48 2 12s4.48 10 10 10 10-4.48 10-10S17.52 2 12 2zm0 18c-4.41 0-8-3.59-8-8s3.59-8 8-8 8 3.59 8 8-3.59 8-8 8zm-.85-12.85c-.39.39-.39 1.02 0 1.41L12 11.59l-1.15 1.15c-.39.39-.39 1.02 0 1.41s1.02.39 1.41 0L12 14.41l1.15 1.15c.39.39 1.02.39 1.41 0s.39-1.02 0-1.41L13.41 12l1.15-1.15c.39-.39.39-1.02 0-1.41s-1.02-.39-1.41 0L12 10.41l-1.15-1.15c-.39-.39-1.02-.39-1.41 0s-.39 1.02 0 1.41L10.59 12l-1.15 1.15z"/>
</svg>